# Blender v2.83.5 OBJ File: ''
# www.blender.org
mtllib teste.mtl
o Cube
v 0.721024 1.000000 -1.776396
v 1.000000 -1.000000 -2.436647
v 0.721024 1.000000 0.587883
v 1.000000 -1.000000 1.000000
v -0.688775 1.000000 -1.776396
v -1.000000 -1.000000 -2.436647
v -0.688775 1.000000 0.587883
v -1.000000 -1.000000 1.000000
v 1.000000 0.000000 -2.436647
v -1.000000 0.000000 1.000000
v 1.000000 0.000000 1.000000
v -1.000000 0.000000 -2.436647
v -1.000000 -1.000000 -1.460197
v 0.721024 1.000000 -1.460197
v -0.688775 1.000000 -1.460197
v 1.000000 -1.000000 -1.460197
v 1.000000 0.000000 -1.460197
v -1.000000 0.000000 -1.460197
v -1.000000 -1.000000 -0.230098
v 0.721024 1.000000 -0.230098
v 1.000000 0.000000 -0.230098
v -0.688775 1.000000 -0.230098
v 1.000000 -1.000000 -0.230098
v -1.000000 0.000000 -0.230098
v -0.844388 0.500000 1.000000
v 0.860512 0.500000 -2.436647
v 0.860512 0.500000 1.000000
v -0.844388 0.500000 -2.436647
v 0.860512 0.500000 -1.460197
v -0.844388 0.500000 -1.460197
v -0.844388 0.500000 -0.230098
v 0.860512 0.500000 -0.230098
v 1.000000 -0.810156 -3.661126
v -1.000000 -0.810156 -3.661126
v 1.000000 0.000000 -3.694159
v -1.000000 0.000000 -3.694159
v 0.860512 0.500000 -3.533534
v -0.844388 0.500000 -3.533534
v 1.000000 0.000000 1.877870
v 1.000000 -0.839519 1.712173
v -1.000000 -0.839519 1.712173
v -1.000000 0.000000 1.877870
v 0.860512 0.465533 1.833156
v -0.844388 0.465533 1.833156
v -1.169722 -0.088547 -2.279144
v -1.169722 -0.884434 -2.279144
v -1.169722 -0.088547 -1.617889
v -1.169722 -0.884434 -1.617889
v -1.146840 -0.884434 -0.072595
v -1.146840 -0.884434 0.842307
v -1.146840 -0.088547 0.842307
v -1.146840 -0.088547 -0.072595
v 1.214289 -0.204714 0.873533
v 1.214289 -0.894719 0.873533
v 1.214289 -0.204714 -0.070516
v 1.214289 -0.894719 -0.070516
v 1.203817 -0.170091 -2.277065
v 1.203817 -0.894719 -2.277065
v 1.203817 -0.894719 -1.586664
v 1.203817 -0.170091 -1.586664
vt 0.625000 0.687500
vt 0.875000 0.687500
vt 0.875000 0.750000
vt 0.625000 0.750000
vt 0.562500 0.750000
vt 0.625000 1.000000
vt 0.562500 1.000000
vt 0.562500 0.125000
vt 0.625000 0.125000
vt 0.625000 0.250000
vt 0.562500 0.250000
vt 0.125000 0.687500
vt 0.375000 0.687500
vt 0.375000 0.750000
vt 0.125000 0.750000
vt 0.562500 0.687500
vt 0.625000 0.500000
vt 0.562500 0.500000
vt 0.375000 0.250000
vt 0.500000 0.250000
vt 0.500000 0.250000
vt 0.375000 0.250000
vt 0.500000 0.687500
vt 0.500000 0.687500
vt 0.375000 0.687500
vt 0.125000 0.500000
vt 0.125000 0.625000
vt 0.125000 0.625000
vt 0.125000 0.500000
vt 0.562500 0.000000
vt 0.500000 0.000000
vt 0.500000 0.000000
vt 0.562500 0.000000
vt 0.375000 0.062500
vt 0.500000 0.062500
vt 0.500000 0.125000
vt 0.375000 0.125000
vt 0.375000 0.500000
vt 0.500000 0.500000
vt 0.500000 0.500000
vt 0.375000 0.500000
vt 0.625000 0.625000
vt 0.562500 0.625000
vt 0.375000 0.625000
vt 0.562500 0.062500
vt 0.625000 0.062500
vt 0.875000 0.500000
vt 0.875000 0.625000
vt 0.625000 0.000000
vt 0.375000 0.000000
vt 0.500000 0.000000
vt 0.375000 0.000000
vt 0.500000 0.625000
vt 0.375000 0.500000
vt 0.500000 0.500000
vt 0.500000 0.750000
vt 0.375000 0.000000
vt 0.562500 0.250000
vt 0.562500 0.500000
vt 0.125000 0.500000
vt 0.375000 0.750000
vt 0.500000 0.750000
vt 0.500000 1.000000
vt 0.375000 1.000000
vt 0.562500 0.750000
vt 0.562500 1.000000
vt 0.125000 0.750000
vt 0.375000 0.125000
vt 0.500000 0.125000
vt 0.500000 0.250000
vt 0.375000 0.250000
vt 0.500000 0.062500
vt 0.375000 0.062500
vt 0.125000 0.750000
vt 0.125000 0.687500
vt 0.500000 0.750000
vt 0.375000 0.750000
vt 0.500000 0.625000
vt 0.375000 0.625000
vn 0.0000 1.0000 0.0000
vn 0.0000 0.6360 0.7717
vn -0.9548 0.2972 0.0000
vn 0.0000 -1.0000 0.0000
vn 0.9632 0.2687 0.0000
vn 0.0000 0.7972 -0.6037
vn -1.0000 0.0000 0.0000
vn 0.5973 -0.0000 -0.8020
vn -0.5628 -0.8266 0.0000
vn -0.9517 0.3070 0.0062
vn 0.6165 0.0000 -0.7874
vn -0.7318 0.0000 0.6815
vn 1.0000 0.0000 0.0000
vn 0.0000 -0.0407 -0.9992
vn 0.0000 0.3059 -0.9521
vn 0.0000 -0.9882 -0.1532
vn 0.0000 -0.1936 0.9811
vn 0.0000 0.0956 0.9954
vn 0.9606 0.2778 0.0056
vn 0.0000 -0.9755 0.2198
vn 0.0000 0.9991 0.0413
vn -0.4626 0.8866 0.0000
vn -0.6802 0.0000 -0.7330
vn -0.6807 0.0000 0.7326
vn -0.6185 -0.7858 0.0000
vn -0.7314 0.0000 -0.6819
vn -0.5164 0.8564 0.0000
vn 0.4410 -0.8975 0.0000
vn 0.6908 0.7231 0.0000
vn 0.5083 0.0000 0.8612
vn 0.6407 0.7678 0.0000
vn 0.4589 -0.8885 0.0000
vn 0.5272 0.0000 0.8497
usemtl Material
s off
f 20/1/1 22/2/1 7/3/1 3/4/1
f 27/5/2 3/4/2 7/6/2 25/7/2
f 30/8/3 15/9/3 5/10/3 28/11/3
f 19/12/4 23/13/4 4/14/4 8/15/4
f 32/16/5 20/1/5 3/4/5 27/5/5
f 28/11/6 5/10/6 1/17/6 26/18/6
f 6/19/7 12/20/7 36/21/7 34/22/7
f 23/13/8 21/23/8 55/24/8 56/25/8
f 6/26/9 13/27/9 48/28/9 46/29/9
f 25/30/10 10/31/10 42/32/10 44/33/10
f 19/34/7 24/35/7 18/36/7 13/37/7
f 2/38/11 9/39/11 57/40/11 58/41/11
f 26/18/5 1/17/5 14/42/5 29/43/5
f 6/26/4 2/38/4 16/44/4 13/27/4
f 31/45/3 22/46/3 15/9/3 30/8/3
f 1/17/1 5/47/1 15/48/1 14/42/1
f 25/30/3 7/49/3 22/46/3 31/45/3
f 8/50/12 10/31/12 51/51/12 50/52/12
f 16/44/13 17/53/13 21/23/13 23/13/13
f 29/43/5 14/42/5 20/1/5 32/16/5
f 13/27/4 16/44/4 23/13/4 19/12/4
f 14/42/1 15/48/1 22/2/1 20/1/1
f 17/53/5 29/43/5 32/16/5 21/23/5
f 10/31/3 25/30/3 31/45/3 24/35/3
f 24/35/3 31/45/3 30/8/3 18/36/3
f 9/39/5 26/18/5 29/43/5 17/53/5
f 9/39/13 2/38/13 33/54/13 35/55/13
f 21/23/5 32/16/5 27/5/5 11/56/5
f 18/36/3 30/8/3 28/11/3 12/20/3
f 10/31/7 8/50/7 41/57/7 42/32/7
f 34/22/14 36/21/14 35/55/14 33/54/14
f 36/21/15 38/58/15 37/59/15 35/55/15
f 28/11/1 26/18/1 37/59/1 38/58/1
f 2/38/16 6/26/16 34/60/16 33/54/16
f 26/18/5 9/39/5 35/55/5 37/59/5
f 12/20/3 28/11/3 38/58/3 36/21/3
f 40/61/17 39/62/17 42/63/17 41/64/17
f 39/62/18 43/65/18 44/66/18 42/63/18
f 11/56/19 27/5/19 43/65/19 39/62/19
f 8/15/20 4/14/20 40/61/20 41/67/20
f 27/5/21 25/7/21 44/66/21 43/65/21
f 4/14/13 11/56/13 39/62/13 40/61/13
f 48/68/7 47/69/7 45/70/7 46/71/7
f 18/36/22 12/20/22 45/70/22 47/69/22
f 12/20/23 6/19/23 46/71/23 45/70/23
f 13/37/24 18/36/24 47/69/24 48/68/24
f 50/52/7 51/51/7 52/72/7 49/73/7
f 19/12/25 8/15/25 50/74/25 49/75/25
f 24/35/26 19/34/26 49/73/26 52/72/26
f 10/31/27 24/35/27 52/72/27 51/51/27
f 56/25/13 55/24/13 53/76/13 54/77/13
f 4/14/28 23/13/28 56/25/28 54/77/28
f 21/23/29 11/56/29 53/76/29 55/24/29
f 11/56/30 4/14/30 54/77/30 53/76/30
f 58/41/13 57/40/13 60/78/13 59/79/13
f 9/39/31 17/53/31 60/78/31 57/40/31
f 16/44/32 2/38/32 58/41/32 59/79/32
f 17/53/33 16/44/33 59/79/33 60/78/33
